# xmcd
#
# Track frame offsets:
#	150
#	78631
#	104791
#	149366
#	174651
#	195492
#
# Disc length: 3085 seconds
#
# Revision: 1
# Processed by: cddbd v1.5.2PL0 Copyright (c) Steve Scherf et al.
# Submitted via: audiograbber 1.83.01
#
DISCID=540c0b06
DTITLE=Grateful Dead - 91-09-22 Boston Gardens, Boston MA
DYEAR=1900
DGENRE=
TTITLE0=Drums > Space
TTITLE1=The Last Time
TTITLE2=Stella Blue
TTITLE3=Sugar Magnolia
TTITLE4=Sunshine Daydream
TTITLE5=Knockin On Heavens Door
EXTD=
EXTT0=
EXTT1=
EXTT2=
EXTT3=
EXTT4=
EXTT5=
PLAYORDER=
